<svg width="54" height="52" viewBox="0 0 54 52" fill="none" xmlns="http://www.w3.org/2000/svg">
<path d="M0 18.7063C0 12.1585 0 8.88457 1.30761 6.38364C2.45782 4.18376 4.29315 2.39519 6.55055 1.27429C9.11688 0 12.4764 0 19.1954 0H33.8446C40.5637 0 43.9232 0 46.4894 1.27429C48.7468 2.39519 50.5822 4.18376 51.7324 6.38364C53.04 8.88457 53.04 12.1585 53.04 18.7063V32.9822C53.04 39.5301 53.04 42.804 51.7324 45.3048C50.5822 47.5047 48.7468 49.2933 46.4894 50.4142C43.9232 51.6885 40.5637 51.6885 33.8446 51.6885H19.1954C12.4764 51.6885 9.11688 51.6885 6.55055 50.4142C4.29315 49.2933 2.45782 47.5047 1.30761 45.3048C0 42.804 0 39.5301 0 32.9822V18.7063Z" fill="#00005B"/>
<path d="M22.3323 32.423H14.1132L12.4409 37.6252C12.3945 37.8181 12.2122 37.9547 12.0139 37.9453H7.85095C7.61355 37.9453 7.53053 37.815 7.60189 37.5542L14.718 17.1542C14.7892 16.941 14.8604 16.7324 14.9316 16.4595C15.0246 15.9849 15.0723 15.5027 15.0739 15.0193C15.0535 14.8764 15.1801 14.7498 15.3229 14.7702H20.9804C21.1461 14.7702 21.2408 14.8295 21.2649 14.948L29.3419 37.5896C29.413 37.827 29.3417 37.9455 29.1284 37.9453H24.5028C24.3406 37.9632 24.1857 37.8549 24.147 37.6963L22.3323 32.423ZM15.3941 28.0366H21.016C20.0923 24.9608 19.0499 21.9256 18.205 18.8258C17.2477 22.0411 16.3636 25.0232 15.3941 28.0366Z" fill="#9999FF"/>
<path d="M35.3489 30.414C35.676 33.0555 37.9522 34.3148 40.4726 34.2611C41.8938 34.2339 43.4127 34.0189 44.7408 33.4952C44.859 33.4008 44.9186 33.4597 44.9186 33.6731V37.0515C44.9298 37.2273 44.8544 37.3844 44.7052 37.4783C43.0545 38.209 41.1598 38.4294 39.3695 38.4013C34.0318 38.4013 30.3662 34.7362 30.3677 29.4038C30.3537 24.3506 33.7177 20.0874 38.9426 20.0874C43.3716 19.9755 46.4379 23.4311 46.4502 27.7325C46.4502 28.5157 46.4053 29.3019 46.3079 30.0795C46.289 30.2397 46.149 30.3641 45.9876 30.3641C42.4504 30.3641 38.896 30.414 35.3489 30.414ZM35.3489 27.1742C37.3203 27.1742 39.303 27.2422 41.2731 27.1565C41.5692 27.127 41.7891 27.0721 41.7891 26.7722C41.748 25.1776 40.3671 23.866 38.7647 23.9271C36.8287 23.81 35.5897 25.4028 35.3489 27.1742Z" fill="#9999FF"/>
</svg>
