<svg width="28" height="27" viewBox="0 0 28 28" fill="none" xmlns="http://www.w3.org/2000/svg">
<path d="M28 14C28 21.732 21.732 28 14 28C6.26801 28 0 21.732 0 14C0 6.26801 6.26801 0 14 0C21.732 0 28 6.26801 28 14Z" fill="white"/>
<path d="M8.78346 8C9.36987 8 9.90001 8.05071 10.3858 8.16254C10.8647 8.27437 11.2779 8.44731 11.623 8.69112C11.965 8.93493 12.2319 9.25351 12.4238 9.66312C12.6095 10.0695 12.707 10.574 12.707 11.163C12.707 11.8028 12.5639 12.3418 12.2838 12.7748C12.0006 13.2085 11.5867 13.5537 11.0303 13.8313C11.7855 14.0582 12.3457 14.4542 12.717 15.0198C13.0915 15.5919 13.2703 16.2759 13.2703 17.0652C13.2703 17.7154 13.1628 18.2706 12.9283 18.7381C12.697 19.2153 12.3713 19.6048 11.9612 19.9097C11.5605 20.2114 11.0853 20.4279 10.5708 20.5735C10.0626 20.7159 9.52554 20.7939 8.97851 20.7939H3V8.00715H8.78283L8.78346 8ZM17.1226 18.5417C17.4871 18.9143 18.0147 19.1002 18.7018 19.1002C19.1932 19.1002 19.617 18.9715 19.9746 18.7108C20.3297 18.4605 20.5411 18.1822 20.6261 17.8981H22.7817C22.4466 19.0053 21.9089 19.8044 21.1994 20.2822C20.4898 20.7666 19.6302 21 18.6337 21C17.9335 21 17.3114 20.8882 16.7388 20.6548C16.1786 20.4214 15.7035 20.0891 15.3059 19.6659C14.9183 19.2426 14.6188 18.7309 14.4069 18.1321C14.1949 17.5333 14.0943 16.876 14.0943 16.1647C14.0943 15.4671 14.2081 14.8306 14.4331 14.2312C14.6576 13.6252 14.967 13.1207 15.3646 12.6805C15.7779 12.2371 16.2505 11.9049 16.8138 11.6442C17.3739 11.3834 17.9797 11.2684 18.663 11.2684C19.422 11.2684 20.0728 11.4108 20.6461 11.7222C21.2062 12.0167 21.6651 12.4335 22.0302 12.9347C22.3984 13.4425 22.6554 14.0283 22.8148 14.6889C22.9742 15.339 23.023 16.023 22.9905 16.7512H16.5793C16.5793 17.4794 16.8138 18.1666 17.172 18.5391L17.1039 18.5664L17.1226 18.5417ZM8.58465 18.5853C8.84848 18.5853 9.10229 18.558 9.33986 18.504C9.58055 18.4533 9.79561 18.3616 9.97503 18.2433C10.1507 18.1282 10.3007 17.9585 10.4114 17.7388C10.5189 17.532 10.5677 17.2447 10.5677 16.9059C10.5677 16.2558 10.3851 15.7883 10.0338 15.5042C9.67558 15.2266 9.20982 15.0874 8.62716 15.0874H5.70011V18.5989H8.58528V18.5716L8.58465 18.5853ZM19.929 13.6889C19.6327 13.3534 19.1444 13.174 18.5449 13.174C18.1573 13.174 17.8353 13.2384 17.5746 13.3807C17.3239 13.5095 17.1157 13.6857 16.9557 13.8918C16.7994 14.0985 16.6919 14.3085 16.63 14.5419C16.5681 14.7688 16.5293 14.9756 16.5193 15.1583H20.4885C20.4298 14.5081 20.2116 14.0309 19.9221 13.6922V13.7026L19.929 13.6889ZM8.43524 13.1538C8.91412 13.1538 9.3111 13.0388 9.62369 12.7982C9.93627 12.5648 10.0863 12.1714 10.0863 11.637C10.0863 11.3392 10.0275 11.0954 9.93627 10.9056C9.82562 10.7125 9.68558 10.5668 9.51928 10.4622C9.34361 10.3536 9.14168 10.2795 8.91662 10.2385C8.69218 10.191 8.45087 10.1741 8.21643 10.1741H5.69324V13.1538H8.43524ZM16.0186 8.85691H20.9937V10.1163H16.0186V8.84651V8.85691Z" fill="black"/>
</svg>
