<svg width="27" height="17" viewBox="0 0 27 17" fill="none" xmlns="http://www.w3.org/2000/svg">
<path id="Behance" d="M7.88546 0.370422C8.65967 0.370422 9.3596 0.434802 10.0009 0.576769C10.6332 0.718735 11.1788 0.938288 11.6344 1.24781C12.0858 1.55733 12.4383 1.96177 12.6917 2.48176C12.9368 2.99763 13.0656 3.63812 13.0656 4.38592C13.0656 5.1981 12.8766 5.88235 12.5068 6.43206C12.1329 6.98259 11.5865 7.42087 10.8519 7.77331C11.849 8.06137 12.5885 8.56403 13.0788 9.28211C13.5732 10.0085 13.8093 10.8768 13.8093 11.8788C13.8093 12.7042 13.6673 13.409 13.3578 14.0025C13.0524 14.6083 12.6224 15.1027 12.0809 15.4898C11.5518 15.8728 10.9245 16.1477 10.2452 16.3326C9.5742 16.5133 8.86519 16.6124 8.14298 16.6124H0.249817V0.379501H7.88464L7.88546 0.370422ZM18.8953 13.7532C19.3765 14.2262 20.0731 14.4622 20.9802 14.4622C21.629 14.4622 22.1886 14.2988 22.6607 13.9678C23.1295 13.6501 23.4085 13.2968 23.5207 12.9361H26.3667C25.9243 14.3417 25.2144 15.3561 24.2776 15.9628C23.3408 16.5777 22.2059 16.874 20.8902 16.874C19.9658 16.874 19.1445 16.732 18.3885 16.4357C17.6489 16.1394 17.0217 15.7176 16.4967 15.1803C15.985 14.643 15.5896 13.9934 15.3098 13.2332C15.03 12.4731 14.8971 11.6386 14.8971 10.7356C14.8971 9.84998 15.0473 9.04193 15.3445 8.28092C15.6408 7.51166 16.0494 6.87116 16.5743 6.31238C17.1199 5.74946 17.7439 5.32769 18.4875 4.99671C19.2271 4.66573 20.0269 4.51964 20.929 4.51964C21.9311 4.51964 22.7903 4.7004 23.5472 5.09576C24.2867 5.46966 24.8925 5.99873 25.3746 6.6351C25.8607 7.27973 26.1999 8.0234 26.4104 8.86199C26.6209 9.68738 26.6853 10.5557 26.6424 11.4801H18.178C18.178 12.4045 18.4875 13.277 18.9605 13.7499L18.8705 13.7846L18.8953 13.7532ZM7.62299 13.8085C7.9713 13.8085 8.30641 13.7739 8.62006 13.7054C8.93783 13.641 9.22176 13.5246 9.45865 13.3744C9.69058 13.2283 9.88867 13.0129 10.0348 12.7339C10.1767 12.4714 10.2411 12.1066 10.2411 11.6766C10.2411 10.8512 10.0001 10.2577 9.53623 9.89703C9.06329 9.54459 8.44837 9.36795 7.67911 9.36795H3.81466V13.8259H7.62381V13.7912L7.62299 13.8085ZM22.6004 7.59255C22.2092 7.16665 21.5646 6.93884 20.773 6.93884C20.2613 6.93884 19.8362 7.02056 19.492 7.20132C19.1611 7.36474 18.8862 7.58842 18.6749 7.85007C18.4686 8.11254 18.3266 8.37914 18.2449 8.67545C18.1632 8.96351 18.112 9.22599 18.0988 9.45792H23.3392C23.2616 8.63253 22.9735 8.0267 22.5914 7.59668V7.60988L22.6004 7.59255ZM7.42572 6.91326C8.05797 6.91326 8.58209 6.76716 8.99478 6.46177C9.40747 6.16546 9.60557 5.6661 9.60557 4.98763C9.60557 4.6096 9.52798 4.30008 9.40747 4.05907C9.26138 3.81393 9.07649 3.62905 8.85694 3.49616C8.62501 3.35832 8.35841 3.26423 8.06127 3.21223C7.76496 3.15197 7.44636 3.13051 7.13684 3.13051H3.80558V6.91326H7.42572ZM17.4377 1.45828H24.0061V3.05705H17.4377V1.44507V1.45828Z" fill="white"/>
</svg>
