<svg width="27" height="26" viewBox="0 0 22 22" fill="none" xmlns="http://www.w3.org/2000/svg">
<g clip-path="url(#clip0_302_2)">
<path d="M15.4665 7.62094C15.371 7.37373 15.2248 7.14925 15.0373 6.96196C14.8499 6.77467 14.6252 6.62874 14.3779 6.53354C14.0374 6.40742 13.6777 6.34075 13.3146 6.33646C12.7107 6.30896 12.5297 6.30209 11 6.30209C9.47031 6.30209 9.28927 6.30896 8.68541 6.33646C8.32191 6.34062 7.96183 6.40729 7.62093 6.53354C7.37372 6.629 7.14924 6.77517 6.96195 6.96265C6.77467 7.15014 6.62873 7.37477 6.53354 7.62209C6.40741 7.96262 6.34075 8.3223 6.33645 8.68542C6.30895 9.28927 6.30208 9.47032 6.30208 11C6.30208 12.5297 6.30895 12.7107 6.33645 13.3146C6.34061 13.6781 6.40728 14.0382 6.53354 14.3791C6.62899 14.6263 6.77516 14.8508 6.96265 15.038C7.15013 15.2253 7.37476 15.3713 7.62208 15.4665C7.96261 15.5926 8.32229 15.6593 8.68541 15.6635C9.28927 15.691 9.47031 15.6979 11 15.6979C12.5297 15.6979 12.7107 15.691 13.3146 15.6635C13.6781 15.6594 14.0382 15.5927 14.3791 15.4665C14.6263 15.371 14.8508 15.2248 15.038 15.0374C15.2253 14.8499 15.3713 14.6252 15.4665 14.3779C15.5926 14.0374 15.6592 13.6777 15.6635 13.3146C15.691 12.7107 15.6979 12.5297 15.6979 11C15.6979 9.47032 15.691 9.28927 15.6635 8.68542C15.6594 8.32192 15.5927 7.96184 15.4665 7.62094ZM11 13.9425C10.418 13.9425 9.84912 13.7699 9.36523 13.4466C8.88134 13.1233 8.50419 12.6637 8.28148 12.126C8.05877 11.5884 8.0005 10.9967 8.11403 10.4259C8.22757 9.85516 8.50782 9.33086 8.91933 8.91934C9.33085 8.50782 9.85515 8.22758 10.4259 8.11404C10.9967 8.0005 11.5884 8.05878 12.126 8.28149C12.6637 8.5042 13.1233 8.88135 13.4466 9.36524C13.7699 9.84913 13.9425 10.418 13.9425 11C13.9425 11.7804 13.6325 12.5288 13.0807 13.0807C12.5288 13.6325 11.7804 13.9425 11 13.9425ZM14.0582 8.62927C13.9222 8.62927 13.7893 8.58895 13.6763 8.51341C13.5632 8.43787 13.4751 8.33049 13.4231 8.20487C13.371 8.07924 13.3574 7.94101 13.3839 7.80765C13.4105 7.67429 13.4759 7.55179 13.5721 7.45564C13.6682 7.35949 13.7907 7.29401 13.9241 7.26748C14.0575 7.24096 14.1957 7.25457 14.3213 7.30661C14.4469 7.35864 14.5543 7.44676 14.6299 7.55982C14.7054 7.67288 14.7457 7.8058 14.7457 7.94177C14.7457 8.12411 14.6733 8.29898 14.5444 8.42791C14.4154 8.55684 14.2406 8.62927 14.0582 8.62927Z" fill="white"/>
<path d="M11 12.9101C12.0549 12.9101 12.9101 12.0549 12.9101 11C12.9101 9.94508 12.0549 9.0899 11 9.0899C9.94507 9.0899 9.08989 9.94508 9.08989 11C9.08989 12.0549 9.94507 12.9101 11 12.9101Z" fill="white"/>
<path d="M11 0C8.82441 0 6.69767 0.645139 4.88873 1.85383C3.07979 3.06253 1.66989 4.78049 0.83733 6.79048C0.00476611 8.80047 -0.213071 11.0122 0.211367 13.146C0.635804 15.2798 1.68345 17.2398 3.22183 18.7782C4.76021 20.3166 6.72022 21.3642 8.85401 21.7886C10.9878 22.2131 13.1995 21.9952 15.2095 21.1627C17.2195 20.3301 18.9375 18.9202 20.1462 17.1113C21.3549 15.3023 22 13.1756 22 11C22 8.08262 20.8411 5.28473 18.7782 3.22183C16.7153 1.15893 13.9174 0 11 0ZM16.6948 13.3627C16.685 13.8378 16.5947 14.3077 16.4278 14.7526C16.2807 15.1331 16.0556 15.4787 15.7672 15.7672C15.4787 16.0556 15.1331 16.2807 14.7526 16.4278C14.3077 16.5947 13.8378 16.685 13.3627 16.6948C12.7508 16.7223 12.556 16.7292 11 16.7292C9.44396 16.7292 9.24917 16.7223 8.6373 16.6948C8.16224 16.685 7.69229 16.5947 7.2474 16.4278C6.86689 16.2807 6.52133 16.0556 6.23285 15.7672C5.94437 15.4787 5.71934 15.1331 5.57219 14.7526C5.40531 14.3077 5.31504 13.8378 5.30521 13.3627C5.27771 12.7508 5.27084 12.556 5.27084 11C5.27084 9.44396 5.27771 9.24917 5.30521 8.63729C5.31504 8.16224 5.40531 7.69228 5.57219 7.2474C5.71934 6.86689 5.94437 6.52132 6.23285 6.23284C6.52133 5.94437 6.86689 5.71934 7.2474 5.57219C7.69229 5.40531 8.16224 5.31504 8.6373 5.30521C9.24917 5.27771 9.44396 5.27083 11 5.27083C12.556 5.27083 12.7508 5.27771 13.3627 5.30521C13.8378 5.31504 14.3077 5.40531 14.7526 5.57219C15.1331 5.71934 15.4787 5.94437 15.7672 6.23284C16.0556 6.52132 16.2807 6.86689 16.4278 7.2474C16.5947 7.69228 16.685 8.16224 16.6948 8.63729C16.7223 9.24917 16.7292 9.44396 16.7292 11C16.7292 12.556 16.7223 12.7508 16.6948 13.3627Z" fill="white"/>
</g>
<defs>
<clipPath id="clip0_302_2">
<rect width="22" height="22" fill="white"/>
</clipPath>
</defs>
</svg>
